# xmcd
#
# Track frame offsets: 
#        150
#        16207
#        35802
#        53147
#        73087
#        86280
#        106930
#        125352
#        154680
#        177842
#        193385
#        216032
#        236960
#
# Disc length: 3445 seconds
#
# Revision: 4
# Processed by: cddbd v1.5.2PL0 Copyright (c) Steve Scherf et al.
# Submitted via: ExactAudioCopy v1.0b3
#
DISCID=b30d730d
DTITLE=Various Artist - Common Thread - The Songs of The Eagles
DYEAR=1993
DGENRE=Folk/Rock
TTITLE0=Travis Tritt - Take It Easy
TTITLE1=Little Texas - Peaceful Easy Feeling
TTITLE2=Clint Black - Desperado
TTITLE3=John Anderson - Heartache Tonight
TTITLE4=Alan Jackson - Tequila Sunrise
TTITLE5=Suzy Bogguss - Take It To The Limit
TTITLE6=Vince Gill - I Can't Tell You Why
TTITLE7=Diamond Rio - Lyin' Eyes
TTITLE8=Trisha Yearwood - New Kid In Town
TTITLE9=Billy Dean - Saturday Night
TTITLE10=Tanya Tucker - Already Gone
TTITLE11=Brooks and Dunn - Best Of My Love
TTITLE12=Lorrie Morgan - The Sad Cafe
EXTD=
EXTT0=
EXTT1=
EXTT2=
EXTT3=
EXTT4=
EXTT5=
EXTT6=
EXTT7=
EXTT8=
EXTT9=
EXTT10=
EXTT11=
EXTT12=
PLAYORDER=
